# xmcd CD database file
#
# Track frame offsets:
#	150
#	17835
#	37391
#	54155
#	73531
#	94037
#	116301
#	136202
#	154745
#	174616
#	193100
#
# Disc length: 2714 seconds
#
# Revision: 0
# Processed by: cddbd v1.4PL0 Copyright (c) Steve Scherf et al.
# Submitted via: Feurio! 1.63 - http://www.feurio.com
#
DISCID=910a980b
DTITLE=Jimmie Vaughan - Strange Pleasure Scans
DYEAR=1900
DGENRE=blues
TTITLE0=Boom-Bapa-Boom
TTITLE1=Don't Cha Know
TTITLE2=Hey-Yeah
TTITLE3=Flamenco Dancer
TTITLE4=(Everybody's Got) Sweet Soul V
TTITLE5=Tilt A Whirl
TTITLE6=Six Strings Down
TTITLE7=Just Like Putty
TTITLE8=Two Wings
TTITLE9=Love The World
TTITLE10=Strange Pleasure Modern Backporch Duende
EXTD=
EXTT0=
EXTT1=
EXTT2=
EXTT3=
EXTT4=
EXTT5=
EXTT6=
EXTT7=
EXTT8=
EXTT9=
EXTT10=
PLAYORDER=
